<?xml version="1.0" encoding="utf-8"?>
<!-- Generator: Adobe Illustrator 14.0.0, SVG Export Plug-In . SVG Version: 6.00 Build 43363)  -->
<!DOCTYPE svg PUBLIC "-//W3C//DTD SVG 1.1//EN" "http://www.w3.org/Graphics/SVG/1.1/DTD/svg11.dtd">
<svg version="1.1" id="Layer_1" xmlns="http://www.w3.org/2000/svg" xmlns:xlink="http://www.w3.org/1999/xlink" x="0px" y="0px"
	 width="765.067px" height="269.439px" viewBox="12.142 16.371 765.067 269.439"
	 enable-background="new 12.142 16.371 765.067 269.439" xml:space="preserve">
<g id="Layer_1_1_">
	<g>
		<g>
			<g>
				<g>
					<path fill="#8BBD4C" stroke="#FFFFFF" d="M165.538,60.053h-43.172c-33.469,0-46.951,10.213-46.951,35.93
						c0,26.947,14.291,38.373,46.951,38.373h39.938v43.682h-32.186L68.472,285.809h-56.33l66.955-115.522
						c-22.456-6.135-31.842-11.848-42.064-24.908c-9.782-13.061-14.686-29.795-14.686-50.625c0-25.313,7.348-44.912,22.051-58.377
						c15.917-15.117,33.873-20.004,73.064-20.004h47.926L165.538,60.053z"/>
					<path fill="#8BBD4C" stroke="#FFFFFF" d="M585.271,285.809V240.51h40.888c61.226,0,95.52-32.256,95.52-89.807
						c0-30.639-11.848-58.816-31.023-73.09c-14.292-10.617-35.104-15.926-64.495-15.926h-40.887V16.371h46.194
						c51.03,0,82.863,11.426,109.406,39.604c23.257,24.908,36.335,59.186,36.335,94.307c0,35.93-13.482,70.629-37.16,95.924
						c-24.891,26.543-60.417,39.604-109.003,39.604h-45.774"/>
				</g>
				<g>
					<path fill="#8BBD4C" stroke="#FFFFFF" d="M246.046,285.809V16.371h51.434v269.438H246.046z"/>
					<path fill="#8BBD4C" stroke="#FFFFFF" d="M354.696,285.809V16.371h51.438v269.438H354.696z"/>
					<path fill="#8BBD4C" stroke="#FFFFFF" d="M463.334,285.809V16.371h51.434v269.438H463.334z"/>
				</g>
			</g>
		</g>
	</g>
</g>
</svg>
